<!DOCTYPE svg PUBLIC "-//W3C//DTD SVG 1.1//EN" "http://www.w3.org/Graphics/SVG/1.1/DTD/svg11.dtd">
<!-- Uploaded to: SVG Repo, www.svgrepo.com, Transformed by: SVG Repo Mixer Tools -->
<svg version="1.1" id="Layer_1" xmlns="http://www.w3.org/2000/svg" xmlns:xlink="http://www.w3.org/1999/xlink" viewBox="-30.72 -30.72 573.44 573.44" xml:space="preserve" width="76px" height="76px" fill="#000000">
<g id="SVGRepo_bgCarrier" stroke-width="0"/>
<g id="SVGRepo_tracerCarrier" stroke-linecap="round" stroke-linejoin="round"/>
<g id="SVGRepo_iconCarrier"> <path style="fill:#FF6243;" d="M439.945,187.325v-15.869c0-69.652-56.988-126.641-126.641-126.641H197.281 c-18.409,0-35.4,5.306-51.756,11.125c-19.412,6.905-36.373,24.784-36.373,24.784c-23.721,23.05-38.512,55.248-38.512,90.732v15.759 v279.97h369.306V187.325H439.945z"/> <g> <path style="fill:#CD2A00;" d="M125.76,243.621c-1.331-31.448-27.236-56.536-59.01-56.536c-32.626,0-59.075,26.448-59.075,59.075 c0,27.365,18.611,50.377,43.864,57.088v163.938h74.285V243.621H125.76z"/> <path style="fill:#CD2A00;" d="M386.241,243.621c1.331-31.448,27.236-56.536,59.01-56.536c32.626,0,59.075,26.448,59.075,59.075 c0,27.365-18.611,50.377-43.864,57.088v163.938h-74.285V243.621H386.241z"/> </g> <g> <rect x="125.821" y="334.377" style="fill:#FF5023;" width="260.35" height="132.809"/> <path style="fill:#FF5023;" d="M267.334,72.411h26.535c21.197,0,38.54,17.343,38.54,38.54v2.866c0,21.197-17.343,38.54-38.54,38.54 h-76.443c-21.197,0-38.54-17.343-38.54-38.54v-2.866c0-21.197,17.343-38.54,38.54-38.54h8.979H267.334z"/> <circle style="fill:#FF5023;" cx="445.249" cy="243.62" r="15.211"/> <circle style="fill:#FF5023;" cx="66.753" cy="243.62" r="15.211"/> </g> <rect x="113.318" y="317.607" style="opacity:0.21;fill:#CD2A00;enable-background:new ;" width="284.067" height="68.656"/> <path style="fill:#FF7956;" d="M184.344,287.485h182.392c10.736,0,19.441,8.704,19.441,19.441v36.541 c0,6.592-5.344,11.938-11.937,11.938H137.761c-6.592,0-11.938-5.344-11.938-11.938v-36.541c0-10.736,8.704-19.441,19.441-19.441 H184.344z"/> <path style="opacity:0.16;fill:#781900;enable-background:new ;" d="M445.051,187.085c-1.79,0-3.558,0.091-5.306,0.247v-0.007 v-15.869c0-69.652-56.988-126.641-126.641-126.641h-39.451c69.652,0,126.641,56.988,126.641,126.641v15.869v0.007 c1.749-0.156,3.517-0.247,5.306-0.247c32.626,0,59.075,26.448,59.075,59.075c0,27.365-18.611,50.377-43.864,57.088v163.938h18.934 h20.517V303.248c25.253-6.712,43.864-29.723,43.864-57.088C504.127,213.534,477.677,187.085,445.051,187.085z"/> <path d="M447.619,179.471v-8.016c0-74.061-60.253-134.315-134.315-134.315H197.281c-19.09,0-37.565,3.972-54.914,11.806 c-3.863,1.745-5.58,6.288-3.836,10.152s6.29,5.581,10.152,3.836c15.35-6.931,31.701-10.445,48.598-10.445h116.023 c65.598,0,118.967,53.368,118.967,118.967v9.207c-29.386,5.75-51.86,30.676-53.645,61.579c-0.081,0.447-0.124,0.909-0.124,1.379 v38.879c-3.561-1.722-7.553-2.689-11.767-2.689h-46.674l18.474-49.646c1.477-3.972-0.544-8.39-4.516-9.869 c-3.971-1.477-8.39,0.544-9.869,4.516l-20.465,54.999h-40.72v-80.054c0-4.238-3.436-7.674-7.674-7.674s-7.674,3.436-7.674,7.674 v80.054h-40.013l-20.465-54.999c-1.479-3.972-5.896-5.995-9.869-4.516c-3.972,1.479-5.994,5.897-4.516,9.869l18.474,49.646h-6.886 c-4.238,0-7.674,3.436-7.674,7.674s3.436,7.674,7.674,7.674h182.392c6.488,0,11.767,5.279,11.767,11.767v36.54 c0,2.351-1.912,4.264-4.264,4.264H137.761c-2.351,0-4.264-1.912-4.264-4.264v-36.54c0-6.488,5.279-11.767,11.767-11.767 c4.238,0,7.674-3.436,7.674-7.674s-3.436-7.674-7.674-7.674c-4.213,0-8.206,0.967-11.767,2.689v-38.879 c0-0.471-0.043-0.932-0.124-1.379c-1.813-31.395-24.986-56.604-55.061-61.821v-8.965c0-32.286,12.851-62.554,36.186-85.228 c3.04-2.954,3.109-7.812,0.156-10.851c-2.953-3.04-7.812-3.108-10.851-0.156c-26.335,25.59-40.838,59.767-40.838,96.236v8.069 C27.915,181.494,0,210.625,0,246.16c0,28.212,17.763,53.203,43.864,62.712v158.313c0,4.238,3.436,7.674,7.674,7.674h74.285h260.354 h74.285c4.238,0,7.674-3.436,7.674-7.674V308.872c26.101-9.509,43.864-34.5,43.864-62.712 C512,210.148,483.33,180.725,447.619,179.471z M53.509,295.832c-22.468-5.971-38.161-26.397-38.161-49.672 c0-28.342,23.059-51.401,51.401-51.401c27.624,0,50.176,21.606,51.343,49.187c0.009,0.223,0.029,0.445,0.057,0.663v62.317v36.54 v11.938v104.108H59.212V303.248C59.212,299.769,56.872,296.725,53.509,295.832z M133.497,363.077h4.264h236.479h4.264v96.434 H133.497V363.077z M458.491,295.832c-3.362,0.894-5.703,3.937-5.703,7.417v156.264h-58.938V355.403v-11.938v-36.54v-62.313 c0.029-0.219,0.047-0.442,0.057-0.667c1.167-27.582,23.721-49.187,51.343-49.187c28.342,0,51.401,23.059,51.401,51.401 C496.652,269.434,480.961,289.86,458.491,295.832z"/> <path d="M217.425,80.085h8.979c4.238,0,7.674-3.436,7.674-7.674c0-4.238-3.436-7.674-7.674-7.674h-8.979 c-25.482,0-46.214,20.732-46.214,46.214v2.866c0,25.482,20.732,46.214,46.214,46.214h76.443c25.482,0,46.214-20.732,46.214-46.214 v-2.866c0-25.482-20.732-46.214-46.214-46.214h-26.535c-4.238,0-7.674,3.436-7.674,7.674c0,4.238,3.436,7.674,7.674,7.674h26.535 c17.02,0,30.866,13.847,30.866,30.866v2.866c0,17.02-13.847,30.866-30.866,30.866h-76.443c-17.02,0-30.866-13.847-30.866-30.866 v-2.866C186.558,93.931,200.405,80.085,217.425,80.085z"/> <path d="M445.251,220.736c-12.619,0-22.885,10.267-22.885,22.885c0,12.618,10.267,22.885,22.885,22.885s22.885-10.267,22.885-22.885 S457.87,220.736,445.251,220.736z M445.251,251.158c-4.156,0-7.537-3.382-7.537-7.537c0-4.155,3.382-7.537,7.537-7.537 s7.537,3.382,7.537,7.537C452.788,247.777,449.408,251.158,445.251,251.158z"/> <path d="M89.634,243.621c0-12.619-10.267-22.885-22.885-22.885s-22.886,10.266-22.886,22.885s10.267,22.885,22.885,22.885 S89.634,256.239,89.634,243.621z M59.212,243.621c0-4.156,3.382-7.537,7.537-7.537s7.537,3.382,7.537,7.537 c0,4.155-3.382,7.537-7.537,7.537S59.212,247.777,59.212,243.621z"/> </g>
</svg>