<!DOCTYPE svg PUBLIC "-//W3C//DTD SVG 1.1//EN" "http://www.w3.org/Graphics/SVG/1.1/DTD/svg11.dtd">
<!-- Uploaded to: SVG Repo, www.svgrepo.com, Transformed by: SVG Repo Mixer Tools -->
<svg height="75px" width="75px" version="1.1" id="Layer_1" xmlns="http://www.w3.org/2000/svg" xmlns:xlink="http://www.w3.org/1999/xlink" viewBox="-30.72 -30.72 573.44 573.44" xml:space="preserve" fill="#000000">
<g id="SVGRepo_bgCarrier" stroke-width="0"/>
<g id="SVGRepo_tracerCarrier" stroke-linecap="round" stroke-linejoin="round"/>
<g id="SVGRepo_iconCarrier"> <g> <path style="fill:#19CCFE;" d="M285.049,292.035H121.662c-34.934,0-63.354-28.421-63.354-63.354v-89.557 c0-34.934,28.42-63.354,63.354-63.354H285.05v31.347H121.662c-17.649,0-32.007,14.359-32.007,32.007v89.557 c0,17.649,14.358,32.007,32.007,32.007H285.05v31.347H285.049z"/> <path style="fill:#19CCFE;" d="M406.87,367.804h-22.715l25.185-217.483l10.375-89.587L453.693,0H145.666l14.856,135.658 l25.422,232.146H163.23c-12.696,0-22.988,10.292-22.988,22.988v98.22c0,12.695,10.292,22.988,22.988,22.988h243.64 c12.695,0,22.988-10.292,22.988-22.988v-98.22C429.857,378.096,419.565,367.804,406.87,367.804z"/> </g> <polygon style="fill:#9BE7FE;" points="285.049,0 145.666,0 160.522,135.658 185.945,367.804 285.049,367.804 "/> <path style="fill:#FB7E17;" d="M239.033,150.877c-40.965,0-45.593-12.461-78.51-15.219l0,0l25.422,232.146h198.209l25.185-217.483 c-32.697-2.796-37.308-15.2-78.18-15.2C285.096,135.121,285.096,150.877,239.033,150.877z"/> <path style="fill:#FF9845;" d="M285.049,143.015c-11.5,3.934-23.016,7.862-46.017,7.862c-40.965,0-45.593-12.461-78.51-15.219l0,0 l25.423,232.146h99.104V143.015z"/> <g> <polygon style="fill:#FF5D3D;" points="236.933,380.475 229.045,221.781 260.353,220.221 268.241,378.914 "/> <polygon style="fill:#FF5D3D;" points="333.166,380.475 341.054,221.781 309.746,220.221 301.857,378.914 "/> </g> <path style="fill:#EE2712;" d="M406.87,512c12.695,0,22.988-10.292,22.988-22.988v-98.22c0-12.695-10.292-22.988-22.988-22.988 H163.23c-12.696,0-22.988,10.292-22.988,22.988v98.22c0,12.695,10.292,22.988,22.988,22.988H406.87z"/> <path style="fill:#FF5D3D;" d="M285.049,367.804H163.23c-12.696,0-22.988,10.292-22.988,22.988v98.22 c0,12.695,10.292,22.988,22.988,22.988h121.819V367.804z"/> <circle style="fill:#71DFFE;" cx="285.048" cy="439.902" r="31.608"/> <path style="fill:#9BE7FE;" d="M285.049,408.294c-17.456,0-31.608,14.152-31.608,31.608c0,17.456,14.152,31.608,31.608,31.608 V408.294z"/> </g>
</svg>