<?xml version="1.0" standalone="no"?>
<!DOCTYPE svg PUBLIC "-//W3C//DTD SVG 20010904//EN"
 "http://www.w3.org/TR/2001/REC-SVG-20010904/DTD/svg10.dtd">
<svg version="1.0" xmlns="http://www.w3.org/2000/svg"
 width="144.000000pt" height="178.000000pt" viewBox="0 0 144.000000 178.000000"
 preserveAspectRatio="xMidYMid meet">

<g transform="translate(0.000000,178.000000) scale(0.100000,-0.100000)"
fill="#000000" stroke="none">
<path d="M740 1723 c-8 -1 -41 -5 -72 -8 -57 -6 -75 -19 -40 -28 9 -3 -7 -5
-37 -6 -30 0 -62 -7 -70 -14 -9 -8 -35 -19 -57 -25 -44 -13 -178 -96 -206
-128 -24 -27 -68 -214 -68 -287 0 -107 18 -222 49 -324 17 -54 38 -134 46
-177 9 -44 18 -82 20 -84 9 -9 42 28 70 79 21 39 26 58 21 87 -22 137 -20 174
14 192 31 17 86 -14 115 -64 43 -74 56 -152 58 -346 l2 -179 29 -30 c16 -17
65 -49 109 -72 75 -39 79 -40 72 -18 -6 20 1 16 41 -21 78 -72 188 -120 143
-63 -8 10 3 3 24 -14 34 -30 43 -33 91 -29 30 2 59 7 65 10 32 20 46 260 19
341 -12 37 -16 40 -58 45 -75 9 -76 17 -8 63 50 33 64 48 66 71 2 16 0 32 -5
37 -11 11 -73 -9 -150 -49 -47 -23 -56 -25 -75 -13 -20 12 -20 11 -14 -16 4
-15 16 -38 27 -49 26 -28 15 -35 -59 -41 -46 -4 -66 0 -102 19 -40 21 -50 33
-92 118 -57 118 -92 238 -85 298 3 28 15 56 34 80 64 80 93 174 61 200 -7 5
-56 12 -109 14 -145 7 -153 24 -12 24 163 1 423 13 446 20 15 5 19 3 14 -9
-11 -29 36 -3 61 33 12 18 22 26 22 18 0 -8 -9 -27 -21 -42 -22 -28 -19 -32
12 -16 34 18 49 64 49 146 0 100 -14 144 -61 190 -30 30 -46 37 -85 41 l-48 4
29 -32 30 -32 -30 20 c-49 34 -218 74 -275 66z"/>
<path d="M970 1089 c-49 -22 -82 -48 -75 -58 2 -4 31 -3 64 3 50 8 71 7 116
-8 52 -16 58 -16 81 -1 39 25 27 48 -31 61 -106 23 -110 23 -155 3z"/>
</g>
</svg>
