<?xml version="1.0" encoding="UTF-8"?>
<svg xmlns="http://www.w3.org/2000/svg" xmlns:xlink="http://www.w3.org/1999/xlink" width="95px" height="95px" viewBox="0 0 95 95" version="1.1">
<g id="surface1">
<path style=" stroke:none;fill-rule:nonzero;fill:rgb(0%,0%,0%);fill-opacity:1;" d="M 49.226562 1.652344 C 38.675781 3.300781 30.449219 9.957031 29.457031 17.625 C 29.191406 19.222656 28.59375 21.085938 28.0625 21.78125 C 25.277344 25.347656 25.9375 28.703125 30.316406 33.921875 C 33.765625 37.96875 33.964844 38.605469 32.90625 40.628906 C 32.042969 42.386719 27.730469 45.796875 26.402344 45.796875 C 26.003906 45.796875 25.804688 45.957031 26.003906 46.117188 C 26.667969 46.59375 31.3125 44.785156 34.296875 42.8125 L 37.152344 40.949219 L 37.152344 42.707031 L 37.21875 44.464844 L 38.277344 42.867188 C 38.808594 41.960938 39.804688 40.789062 40.402344 40.257812 C 41.59375 39.140625 49.160156 35.039062 49.554688 35.304688 C 49.6875 35.410156 48.5625 37.167969 47.101562 39.191406 C 42.722656 45.316406 41 52.824219 42.457031 59.695312 C 43.785156 66.085938 44.25 66.03125 43.917969 59.589844 C 43.253906 44.359375 50.019531 36.476562 71.847656 26.890625 C 74.433594 25.773438 76.691406 24.390625 77.089844 23.644531 C 78.480469 21.195312 79.078125 22.3125 78.613281 26.464844 C 78.28125 29.765625 78.414062 31.046875 79.277344 32.695312 C 80.339844 34.71875 80.339844 34.878906 79.210938 35.519531 C 78.546875 35.890625 77.816406 36.210938 77.484375 36.210938 C 77.21875 36.210938 76.957031 36.902344 76.957031 37.808594 C 76.957031 38.660156 76.691406 39.40625 76.292969 39.40625 C 75.960938 39.40625 75.628906 39.886719 75.628906 40.417969 C 75.628906 41.003906 75.03125 41.640625 74.300781 41.800781 C 73.371094 42.015625 72.976562 42.601562 72.976562 43.613281 C 72.976562 46.59375 69.789062 47.074219 62.957031 45.261719 C 60.703125 44.625 58.777344 44.25 58.644531 44.359375 C 58.511719 44.464844 58.179688 46.703125 57.980469 49.308594 C 57.582031 54.6875 58.644531 57.246094 61.828125 58.46875 C 62.757812 58.84375 64.484375 60.386719 65.542969 61.984375 C 66.671875 63.527344 68.929688 65.765625 70.585938 66.9375 C 72.644531 68.375 73.96875 69.972656 74.898438 71.941406 C 75.695312 73.539062 77.023438 75.511719 77.949219 76.414062 C 79.476562 77.960938 79.476562 77.851562 77.683594 75.085938 C 73.902344 69.28125 74.167969 67.683594 80.871094 56.980469 C 87.039062 47.234375 87.902344 44.996094 87.835938 39.140625 C 87.769531 35.570312 87.4375 33.601562 86.375 31.472656 C 84.984375 28.703125 84.984375 27.105469 86.242188 28.753906 C 89.691406 33.070312 91.085938 41.269531 89.292969 46.808594 C 87.835938 51.386719 88.433594 51.546875 90.222656 47.019531 C 92.015625 42.496094 92.214844 35.304688 90.6875 30.351562 C 90.089844 28.4375 87.835938 24.015625 85.644531 20.5 C 83.457031 16.988281 81.332031 13.046875 80.9375 11.769531 C 79.941406 8.734375 78.214844 7.457031 71.582031 4.847656 C 62.824219 1.492188 56.257812 0.53125 49.226562 1.652344 Z M 50.816406 9.957031 C 48.296875 11.078125 44.648438 13.101562 42.65625 14.539062 C 38.941406 17.304688 37.484375 17.679688 39.871094 15.230469 C 41.398438 13.632812 48.03125 9.90625 51.28125 8.785156 C 55.59375 7.296875 55.261719 8.09375 50.816406 9.957031 Z M 74.964844 9.050781 C 74.964844 9.746094 73.636719 9.746094 72.3125 9.050781 C 71.515625 8.625 71.714844 8.519531 73.175781 8.519531 C 74.167969 8.519531 74.964844 8.734375 74.964844 9.050781 Z M 73.636719 22.097656 C 73.636719 22.207031 72.3125 22.953125 70.71875 23.695312 C 66.738281 25.558594 51.746094 30.40625 51.746094 29.820312 C 51.746094 29.128906 54.664062 27.957031 61.894531 25.773438 C 65.28125 24.761719 68.929688 23.429688 69.988281 22.898438 C 71.847656 21.941406 73.636719 21.511719 73.636719 22.097656 Z M 78.347656 51.707031 C 76.292969 56.765625 74.367188 59.800781 74.300781 57.9375 C 74.300781 56.710938 79.808594 45.476562 80.074219 46.167969 C 80.207031 46.488281 79.410156 48.992188 78.347656 51.707031 Z M 61.960938 54.6875 C 62.492188 58.308594 61.628906 59.160156 60.4375 56.394531 C 59.640625 54.476562 59.507812 52.71875 60.105469 51.386719 C 60.835938 49.949219 61.496094 51.175781 61.960938 54.6875 Z M 61.960938 54.6875 "/>
<path style=" stroke:none;fill-rule:nonzero;fill:rgb(0%,0%,0%);fill-opacity:1;" d="M 19.703125 44.890625 C 19.503906 45.371094 19.570312 46.433594 19.835938 47.285156 C 20.300781 48.457031 20.101562 49.097656 19.171875 50.109375 C 17.648438 51.707031 17.582031 54.371094 19.105469 55.859375 C 19.703125 56.5 21.429688 57.351562 22.886719 57.722656 L 25.542969 58.46875 L 27.996094 64.753906 C 29.390625 68.214844 30.316406 71.515625 30.117188 72.101562 C 29.917969 72.953125 31.976562 75.402344 38.144531 81.742188 C 49.621094 93.402344 49.820312 93.457031 42.324219 83.496094 C 37.550781 76.949219 35.160156 73.21875 31.113281 65.605469 C 27.730469 59.214844 27.265625 57.511719 28.792969 56.5 C 30.316406 55.433594 30.648438 53.359375 29.457031 51.386719 C 28.0625 49.042969 27 48.351562 24.015625 47.980469 C 21.957031 47.714844 21.429688 47.339844 20.832031 45.847656 C 20.300781 44.570312 19.96875 44.304688 19.703125 44.890625 Z M 27.53125 50.589844 C 30.183594 52.929688 28.128906 56.980469 24.214844 56.980469 C 20.433594 56.980469 17.910156 52.71875 20.5 50.640625 C 22.289062 49.203125 25.9375 49.152344 27.53125 50.589844 Z M 34.164062 73.488281 C 34.363281 73.804688 34.097656 74.179688 33.503906 74.339844 C 32.242188 74.765625 31.511719 74.339844 32.175781 73.539062 C 32.707031 72.792969 33.636719 72.792969 34.164062 73.488281 Z M 34.164062 73.488281 "/>
<path style=" stroke:none;fill-rule:nonzero;fill:rgb(0%,0%,0%);fill-opacity:1;" d="M 7.296875 58.734375 C 5.175781 59.589844 3.914062 62.515625 4.777344 64.539062 C 5.839844 66.882812 8.226562 67.789062 12.40625 67.414062 C 16.453125 67.042969 19.105469 67.894531 24.878906 71.355469 C 28.0625 73.21875 28.261719 73.273438 28.394531 72.207031 C 28.460938 71.355469 27.730469 70.769531 25.410156 69.757812 C 19.105469 67.097656 16.585938 65.550781 16.585938 64.378906 C 16.585938 62.515625 14.527344 59.640625 12.539062 58.84375 C 10.28125 57.882812 9.421875 57.882812 7.296875 58.734375 Z M 13.46875 60.546875 C 14.128906 61.078125 14.59375 62.199219 14.59375 63.421875 C 14.59375 67.042969 9.949219 68.214844 6.632812 65.390625 C 2.453125 61.769531 8.824219 57.246094 13.46875 60.546875 Z M 13.46875 60.546875 "/>
<path style=" stroke:none;fill-rule:nonzero;fill:rgb(0%,0%,0%);fill-opacity:1;" d="M 22.886719 62.089844 C 22.355469 62.570312 21.429688 63.636719 20.898438 64.488281 C 19.703125 66.246094 20.632812 66.5625 22.820312 65.234375 C 23.484375 64.804688 24.28125 64.59375 24.613281 64.699219 C 25.476562 65.179688 26.003906 63.902344 25.609375 62.515625 C 25.144531 61.027344 24.414062 60.917969 22.886719 62.089844 Z M 22.886719 62.089844 "/>
<path style=" stroke:none;fill-rule:nonzero;fill:rgb(0%,0%,0%);fill-opacity:1;" d="M 32.308594 65.339844 C 32.839844 66.511719 34.496094 68.535156 34.496094 68 C 34.496094 67.84375 35.492188 68.109375 36.6875 68.695312 C 37.8125 69.28125 39.40625 69.972656 40.203125 70.238281 C 40.933594 70.503906 43.519531 71.675781 45.839844 72.792969 C 48.230469 73.914062 51.613281 75.402344 53.40625 76.148438 C 55.261719 76.894531 56.855469 77.585938 57.054688 77.746094 C 57.253906 77.90625 58.511719 78.4375 59.839844 78.917969 C 61.429688 79.503906 62.492188 80.300781 62.757812 81.207031 C 63.15625 82.59375 63.023438 83.179688 61.429688 87.4375 C 60.902344 88.875 60.570312 89.996094 60.769531 89.996094 C 61.628906 89.996094 66.40625 80.835938 66.007812 79.929688 C 65.808594 79.289062 60.503906 76.734375 52.210938 73.167969 C 44.847656 70.023438 37.351562 66.722656 35.625 65.925781 C 31.910156 64.167969 31.777344 64.167969 32.308594 65.339844 Z M 32.308594 65.339844 "/>
<path style=" stroke:none;fill-rule:nonzero;fill:rgb(0%,0%,0%);fill-opacity:1;" d="M 17.648438 69.707031 C 17.382812 70.078125 17.316406 70.503906 17.515625 70.664062 C 18.109375 71.144531 18.773438 70.453125 18.441406 69.707031 C 18.175781 69.121094 18.042969 69.121094 17.648438 69.707031 Z M 17.648438 69.707031 "/>
<path style=" stroke:none;fill-rule:nonzero;fill:rgb(0%,0%,0%);fill-opacity:1;" d="M 41.199219 79.238281 C 43.121094 82.007812 45.113281 83.871094 47.699219 85.574219 C 55.527344 90.582031 54.332031 88.984375 42.789062 79.078125 L 38.476562 75.351562 Z M 41.199219 79.238281 "/>
</g>
</svg>
