<?xml version="1.0" standalone="no"?>
<!DOCTYPE svg PUBLIC "-//W3C//DTD SVG 20010904//EN"
 "http://www.w3.org/TR/2001/REC-SVG-20010904/DTD/svg10.dtd">
<svg version="1.0" xmlns="http://www.w3.org/2000/svg"
 width="143.000000pt" height="178.000000pt" viewBox="0 0 143.000000 178.000000"
 preserveAspectRatio="xMidYMid meet">

<g transform="translate(0.000000,178.000000) scale(0.100000,-0.100000)"
fill="#000000" stroke="none">
<path d="M742 1749 c-159 -31 -283 -156 -298 -300 -4 -30 -13 -65 -21 -78 -42
-67 -32 -130 34 -228 52 -76 55 -88 39 -126 -13 -33 -78 -97 -98 -97 -6 0 -9
-3 -6 -6 10 -9 80 25 125 62 l43 35 0 -33 1 -33 16 30 c8 17 23 39 32 49 18
21 132 98 138 93 2 -2 -15 -35 -37 -73 -66 -115 -92 -256 -70 -385 20 -120 27
-119 22 2 -10 286 92 434 421 614 39 21 73 47 79 61 21 46 30 25 23 -53 -5
-62 -3 -86 10 -117 16 -38 16 -41 -1 -53 -10 -7 -21 -13 -26 -13 -4 0 -8 -13
-8 -30 0 -16 -4 -30 -10 -30 -5 0 -10 -9 -10 -19 0 -11 -9 -23 -20 -26 -14 -4
-20 -15 -20 -34 0 -56 -48 -65 -151 -31 -34 12 -63 19 -65 17 -2 -2 -7 -44
-10 -93 -6 -101 10 -149 58 -172 14 -7 40 -36 56 -66 17 -29 51 -71 76 -93 31
-27 51 -57 65 -94 12 -30 32 -67 46 -84 23 -29 23 -27 -4 25 -57 109 -53 139
48 340 93 183 106 225 105 335 -1 67 -6 104 -22 144 -21 52 -21 82 -2 51 52
-81 73 -235 46 -339 -22 -86 -13 -89 14 -4 27 85 30 220 7 313 -9 36 -43 119
-76 185 -33 66 -65 140 -71 164 -15 57 -41 81 -141 130 -132 63 -231 81 -337
60z m24 -156 c-38 -21 -93 -59 -123 -86 -56 -52 -78 -59 -42 -13 23 30 123
100 172 121 65 28 60 13 -7 -22z m364 17 c0 -13 -20 -13 -40 0 -12 8 -9 10 13
10 15 0 27 -4 27 -10z m-20 -245 c0 -2 -20 -16 -44 -30 -60 -35 -286 -126
-286 -115 0 13 44 35 153 76 51 19 106 44 122 54 28 18 55 26 55 15z m71 -556
c-31 -95 -60 -152 -61 -117 0 23 83 234 87 221 2 -6 -10 -53 -26 -104z m-247
-56 c8 -68 -5 -84 -23 -32 -12 36 -14 69 -5 94 11 27 21 4 28 -62z"/>
<path d="M297 937 c-3 -9 -2 -29 2 -45 7 -22 4 -34 -10 -53 -23 -30 -24 -80
-1 -108 9 -12 35 -28 57 -35 l40 -14 37 -118 c21 -65 35 -127 32 -138 -3 -16
28 -62 121 -181 173 -219 176 -220 63 -33 -72 123 -108 193 -169 336 -51 120
-58 152 -35 171 23 20 28 59 10 96 -21 44 -37 57 -82 64 -31 5 -39 12 -48 40
-8 24 -13 29 -17 18z m118 -107 c40 -44 9 -120 -50 -120 -57 0 -95 80 -56 119
27 27 82 28 106 1z m100 -430 c3 -6 -1 -13 -10 -16 -19 -8 -30 0 -20 15 8 14
22 14 30 1z"/>
<path d="M110 677 c-32 -16 -51 -71 -38 -109 16 -44 52 -61 115 -54 61 7 101
-9 188 -74 48 -35 51 -36 53 -16 1 16 -10 27 -45 46 -95 50 -133 79 -133 101
0 35 -31 89 -61 104 -34 18 -47 18 -79 2z m93 -34 c10 -10 17 -31 17 -54 0
-68 -70 -90 -120 -37 -63 68 33 153 103 91z"/>
<path d="M345 614 c-8 -9 -22 -29 -30 -45 -18 -33 -4 -39 29 -14 10 8 22 12
27 10 13 -9 21 15 15 41 -7 28 -18 30 -41 8z"/>
<path d="M487 553 c8 -22 33 -60 33 -50 0 3 15 -2 33 -13 17 -11 41 -24 53
-29 11 -5 50 -27 85 -48 36 -21 87 -49 114 -63 28 -14 52 -27 55 -30 3 -3 22
-13 42 -22 24 -11 40 -26 44 -43 6 -26 4 -37 -20 -117 -8 -27 -13 -48 -10 -48
13 0 85 172 79 189 -3 12 -83 60 -208 127 -111 59 -224 121 -250 136 -56 33
-58 33 -50 11z"/>
<path d="M266 471 c-4 -7 -5 -15 -2 -18 9 -9 19 4 14 18 -4 11 -6 11 -12 0z"/>
<path d="M621 292 c29 -52 59 -87 98 -119 118 -94 100 -64 -74 122 l-65 70 41
-73z"/>
</g>
</svg>
