<?xml version="1.0" encoding="UTF-8"?>
<svg xmlns="http://www.w3.org/2000/svg" xmlns:xlink="http://www.w3.org/1999/xlink" width="130px" height="90px" viewBox="0 0 130 90" version="1.1">
<g id="surface1">
<path style=" stroke:none;fill-rule:nonzero;fill:rgb(0%,0%,0%);fill-opacity:1;" d="M 67.359375 1.5625 C 52.925781 3.128906 41.667969 9.433594 40.308594 16.699219 C 39.945312 18.210938 39.128906 19.976562 38.402344 20.632812 C 34.589844 24.011719 35.496094 27.191406 41.488281 32.136719 C 46.207031 35.96875 46.480469 36.574219 45.027344 38.492188 C 43.847656 40.15625 37.945312 43.386719 36.132812 43.386719 C 35.585938 43.386719 35.3125 43.535156 35.585938 43.6875 C 36.496094 44.140625 42.847656 42.425781 46.933594 40.558594 L 50.839844 38.792969 L 50.839844 40.460938 L 50.929688 42.125 L 52.382812 40.609375 C 53.109375 39.753906 54.46875 38.644531 55.285156 38.140625 C 56.921875 37.078125 67.269531 33.195312 67.8125 33.449219 C 67.996094 33.546875 66.453125 35.214844 64.457031 37.128906 C 58.464844 42.929688 56.101562 50.042969 58.101562 56.550781 C 59.917969 62.605469 60.550781 62.554688 60.097656 56.453125 C 59.191406 42.023438 68.449219 34.558594 98.316406 25.476562 C 101.859375 24.417969 104.945312 23.105469 105.488281 22.398438 C 107.394531 20.078125 108.210938 21.136719 107.578125 25.074219 C 107.121094 28.199219 107.304688 29.410156 108.484375 30.976562 C 109.9375 32.890625 109.9375 33.042969 108.394531 33.648438 C 107.484375 34.003906 106.488281 34.304688 106.035156 34.304688 C 105.671875 34.304688 105.308594 34.960938 105.308594 35.820312 C 105.308594 36.625 104.945312 37.332031 104.398438 37.332031 C 103.945312 37.332031 103.492188 37.785156 103.492188 38.289062 C 103.492188 38.84375 102.675781 39.449219 101.675781 39.601562 C 100.40625 39.804688 99.859375 40.359375 99.859375 41.316406 C 99.859375 44.140625 95.503906 44.597656 86.152344 42.882812 C 83.066406 42.277344 80.433594 41.921875 80.25 42.023438 C 80.070312 42.125 79.617188 44.242188 79.34375 46.714844 C 78.800781 51.808594 80.25 54.230469 84.609375 55.390625 C 85.878906 55.746094 88.238281 57.207031 89.691406 58.722656 C 91.234375 60.183594 94.324219 62.304688 96.59375 63.414062 C 99.40625 64.777344 101.222656 66.289062 102.492188 68.15625 C 103.582031 69.667969 105.398438 71.535156 106.667969 72.394531 C 108.757812 73.855469 108.757812 73.753906 106.304688 71.132812 C 101.132812 65.632812 101.496094 64.121094 110.664062 53.980469 C 119.105469 44.746094 120.285156 42.628906 120.195312 37.078125 C 120.105469 33.699219 119.652344 31.832031 118.199219 29.816406 C 116.292969 27.191406 116.292969 25.679688 118.015625 27.242188 C 122.738281 31.328125 124.644531 39.097656 122.191406 44.34375 C 120.195312 48.683594 121.011719 48.835938 123.464844 44.546875 C 125.914062 40.257812 126.1875 33.449219 124.097656 28.753906 C 123.28125 26.941406 120.195312 22.753906 117.199219 19.421875 C 114.203125 16.09375 111.300781 12.359375 110.753906 11.148438 C 109.390625 8.273438 107.03125 7.0625 97.953125 4.589844 C 85.96875 1.414062 76.984375 0.503906 67.359375 1.5625 Z M 69.539062 9.433594 C 66.089844 10.492188 61.097656 12.410156 58.371094 13.773438 C 53.289062 16.394531 51.292969 16.75 54.558594 14.429688 C 56.648438 12.914062 65.726562 9.382812 70.175781 8.324219 C 76.074219 6.910156 75.621094 7.667969 69.539062 9.433594 Z M 102.582031 8.578125 C 102.582031 9.230469 100.769531 9.230469 98.953125 8.578125 C 97.863281 8.171875 98.136719 8.070312 100.132812 8.070312 C 101.496094 8.070312 102.582031 8.273438 102.582031 8.578125 Z M 100.769531 20.9375 C 100.769531 21.035156 98.953125 21.742188 96.773438 22.449219 C 91.328125 24.214844 70.808594 28.804688 70.808594 28.25 C 70.808594 27.59375 74.804688 26.484375 84.699219 24.417969 C 89.328125 23.457031 94.324219 22.199219 95.773438 21.691406 C 98.316406 20.785156 100.769531 20.382812 100.769531 20.9375 Z M 107.214844 48.984375 C 104.398438 53.777344 101.765625 56.652344 101.675781 54.886719 C 101.675781 53.726562 109.210938 43.082031 109.574219 43.738281 C 109.753906 44.042969 108.667969 46.414062 107.214844 48.984375 Z M 84.789062 51.808594 C 85.515625 55.242188 84.335938 56.046875 82.703125 53.425781 C 81.613281 51.609375 81.429688 49.945312 82.25 48.683594 C 83.246094 47.320312 84.15625 48.480469 84.789062 51.808594 Z M 84.789062 51.808594 "/>
<path style=" stroke:none;fill-rule:nonzero;fill:rgb(0%,0%,0%);fill-opacity:1;" d="M 26.960938 42.527344 C 26.691406 42.980469 26.78125 43.992188 27.144531 44.796875 C 27.78125 45.90625 27.507812 46.511719 26.234375 47.472656 C 24.148438 48.984375 24.058594 51.507812 26.144531 52.921875 C 26.960938 53.527344 29.324219 54.332031 31.320312 54.6875 L 34.949219 55.390625 L 38.308594 61.34375 C 40.214844 64.625 41.488281 67.753906 41.214844 68.308594 C 40.941406 69.113281 43.757812 71.433594 52.199219 77.4375 C 67.90625 88.488281 68.175781 88.535156 57.917969 79.101562 C 51.382812 72.898438 48.113281 69.367188 42.578125 62.152344 C 37.945312 56.097656 37.3125 54.484375 39.398438 53.527344 C 41.488281 52.515625 41.941406 50.550781 40.308594 48.683594 C 38.402344 46.464844 36.949219 45.808594 32.863281 45.453125 C 30.050781 45.203125 29.324219 44.847656 28.503906 43.4375 C 27.78125 42.226562 27.324219 41.972656 26.960938 42.527344 Z M 37.675781 47.925781 C 41.304688 50.144531 38.492188 53.980469 33.136719 53.980469 C 27.960938 53.980469 24.511719 49.945312 28.050781 47.976562 C 30.503906 46.613281 35.496094 46.5625 37.675781 47.925781 Z M 46.753906 69.617188 C 47.023438 69.921875 46.660156 70.273438 45.84375 70.425781 C 44.121094 70.828125 43.121094 70.425781 44.03125 69.667969 C 44.753906 68.964844 46.027344 68.964844 46.753906 69.617188 Z M 46.753906 69.617188 "/>
<path style=" stroke:none;fill-rule:nonzero;fill:rgb(0%,0%,0%);fill-opacity:1;" d="M 9.984375 55.644531 C 7.082031 56.453125 5.355469 59.226562 6.535156 61.144531 C 7.988281 63.363281 11.257812 64.222656 16.976562 63.867188 C 22.515625 63.515625 26.144531 64.320312 34.042969 67.601562 C 38.402344 69.367188 38.671875 69.417969 38.855469 68.40625 C 38.945312 67.601562 37.945312 67.046875 34.769531 66.085938 C 26.144531 63.566406 22.695312 62.101562 22.695312 60.992188 C 22.695312 59.226562 19.882812 56.503906 17.15625 55.746094 C 14.070312 54.835938 12.890625 54.835938 9.984375 55.644531 Z M 18.429688 57.359375 C 19.335938 57.863281 19.972656 58.921875 19.972656 60.085938 C 19.972656 63.515625 13.617188 64.625 9.078125 61.949219 C 3.359375 58.519531 12.074219 54.230469 18.429688 57.359375 Z M 18.429688 57.359375 "/>
<path style=" stroke:none;fill-rule:nonzero;fill:rgb(0%,0%,0%);fill-opacity:1;" d="M 31.320312 58.824219 C 30.59375 59.277344 29.324219 60.285156 28.597656 61.09375 C 26.960938 62.757812 28.234375 63.058594 31.230469 61.800781 C 32.136719 61.394531 33.226562 61.195312 33.679688 61.292969 C 34.859375 61.75 35.585938 60.539062 35.042969 59.226562 C 34.40625 57.8125 33.40625 57.714844 31.320312 58.824219 Z M 31.320312 58.824219 "/>
<path style=" stroke:none;fill-rule:nonzero;fill:rgb(0%,0%,0%);fill-opacity:1;" d="M 44.210938 61.898438 C 44.9375 63.011719 47.207031 64.925781 47.207031 64.421875 C 47.207031 64.269531 48.570312 64.523438 50.203125 65.078125 C 51.746094 65.632812 53.925781 66.289062 55.015625 66.542969 C 56.011719 66.792969 59.554688 67.902344 62.730469 68.964844 C 66 70.023438 70.628906 71.433594 73.078125 72.140625 C 75.621094 72.847656 77.800781 73.503906 78.074219 73.65625 C 78.34375 73.804688 80.070312 74.308594 81.886719 74.765625 C 84.0625 75.320312 85.515625 76.078125 85.878906 76.933594 C 86.425781 78.246094 86.242188 78.800781 84.0625 82.835938 C 83.339844 84.199219 82.882812 85.257812 83.15625 85.257812 C 84.335938 85.257812 90.871094 76.582031 90.328125 75.722656 C 90.054688 75.117188 82.792969 72.695312 71.445312 69.316406 C 61.367188 66.339844 51.109375 63.210938 48.75 62.457031 C 43.667969 60.789062 43.484375 60.789062 44.210938 61.898438 Z M 44.210938 61.898438 "/>
<path style=" stroke:none;fill-rule:nonzero;fill:rgb(0%,0%,0%);fill-opacity:1;" d="M 24.148438 66.035156 C 23.785156 66.390625 23.695312 66.792969 23.964844 66.945312 C 24.785156 67.398438 25.691406 66.742188 25.238281 66.035156 C 24.875 65.480469 24.691406 65.480469 24.148438 66.035156 Z M 24.148438 66.035156 "/>
<path style=" stroke:none;fill-rule:nonzero;fill:rgb(0%,0%,0%);fill-opacity:1;" d="M 56.375 75.066406 C 59.007812 77.691406 61.730469 79.457031 65.273438 81.070312 C 75.984375 85.8125 74.351562 84.300781 58.554688 74.914062 L 52.652344 71.382812 Z M 56.375 75.066406 "/>
</g>
</svg>
