<!DOCTYPE svg PUBLIC "-//W3C//DTD SVG 1.1//EN" "http://www.w3.org/Graphics/SVG/1.1/DTD/svg11.dtd">
<!-- Uploaded to: SVG Repo, www.svgrepo.com, Transformed by: SVG Repo Mixer Tools -->
<svg fill="#000000" version="1.1" id="Capa_1" xmlns="http://www.w3.org/2000/svg" xmlns:xlink="http://www.w3.org/1999/xlink" width="95px" height="95px" viewBox="-28.6 -28.6 533.92 533.92" xml:space="preserve">
<g id="SVGRepo_bgCarrier" stroke-width="0"/>
<g id="SVGRepo_tracerCarrier" stroke-linecap="round" stroke-linejoin="round"/>
<g id="SVGRepo_iconCarrier"> <g> <g> <path d="M241.639,0.262c0,0-173.287-18.875-139.32,283.984c0,0,4.719,32.076,23.592,62.275 c18.865,30.188,33.959,130.197,33.959,130.197s35.852-148.13,16.038-197.185c-19.813-49.065-6.608-125.01-6.135-126.427 c0.479-1.411,71.073-61.792,71.859-82.078c0,0,33.813,56.609,56.927,76.42c23.115,19.816,24.999,162.272-9.906,238.226 c0,0,16.038-15.097,18.867-20.286c2.837-5.182,4.725,56.617-8.492,83.503c-13.208,26.886,57.52-41.513,61.29-100.959 C360.333,347.933,447.951-11.061,241.639,0.262z"/> </g> </g> </g>
</svg>