<?xml version="1.0" encoding="UTF-8"?>
<svg xmlns="http://www.w3.org/2000/svg" xmlns:xlink="http://www.w3.org/1999/xlink" width="73px" height="90px" viewBox="0 0 73 90" version="1.1">
<g id="surface1">
<path style=" stroke:none;fill-rule:nonzero;fill:rgb(0%,0%,0%);fill-opacity:1;" d="M 37.824219 1.5625 C 29.71875 3.128906 23.398438 9.433594 22.632812 16.699219 C 22.429688 18.210938 21.972656 19.976562 21.5625 20.632812 C 19.421875 24.011719 19.933594 27.191406 23.296875 32.136719 C 25.949219 35.96875 26.101562 36.574219 25.285156 38.492188 C 24.621094 40.15625 21.308594 43.386719 20.289062 43.386719 C 19.984375 43.386719 19.832031 43.535156 19.984375 43.6875 C 20.492188 44.140625 24.0625 42.425781 26.355469 40.558594 L 28.546875 38.792969 L 28.546875 40.460938 L 28.597656 42.125 L 29.414062 40.609375 C 29.820312 39.753906 30.585938 38.644531 31.046875 38.140625 C 31.964844 37.078125 37.773438 33.195312 38.082031 33.449219 C 38.183594 33.546875 37.316406 35.214844 36.195312 37.128906 C 32.828125 42.929688 31.503906 50.042969 32.625 56.550781 C 33.644531 62.605469 34.003906 62.554688 33.746094 56.453125 C 33.238281 42.023438 38.4375 34.558594 55.207031 25.476562 C 57.195312 24.417969 58.929688 23.105469 59.234375 22.398438 C 60.304688 20.078125 60.765625 21.136719 60.410156 25.074219 C 60.152344 28.199219 60.253906 29.410156 60.917969 30.976562 C 61.734375 32.890625 61.734375 33.042969 60.867188 33.648438 C 60.359375 34.003906 59.796875 34.304688 59.542969 34.304688 C 59.339844 34.304688 59.132812 34.960938 59.132812 35.820312 C 59.132812 36.625 58.929688 37.332031 58.625 37.332031 C 58.371094 37.332031 58.113281 37.785156 58.113281 38.289062 C 58.113281 38.84375 57.65625 39.449219 57.09375 39.601562 C 56.382812 39.804688 56.074219 40.359375 56.074219 41.316406 C 56.074219 44.140625 53.628906 44.597656 48.378906 42.882812 C 46.644531 42.277344 45.167969 41.921875 45.0625 42.023438 C 44.960938 42.125 44.707031 44.242188 44.554688 46.714844 C 44.25 51.808594 45.0625 54.230469 47.511719 55.390625 C 48.226562 55.746094 49.550781 57.207031 50.367188 58.722656 C 51.234375 60.183594 52.964844 62.304688 54.238281 63.414062 C 55.820312 64.777344 56.839844 66.289062 57.554688 68.15625 C 58.164062 69.667969 59.183594 71.535156 59.898438 72.394531 C 61.070312 73.855469 61.070312 73.753906 59.695312 71.132812 C 56.789062 65.632812 56.992188 64.121094 62.140625 53.980469 C 66.882812 44.746094 67.546875 42.628906 67.496094 37.078125 C 67.445312 33.699219 67.1875 31.832031 66.371094 29.816406 C 65.300781 27.191406 65.300781 25.679688 66.269531 27.242188 C 68.921875 31.328125 69.992188 39.097656 68.617188 44.34375 C 67.496094 48.683594 67.953125 48.835938 69.328125 44.546875 C 70.707031 40.257812 70.859375 33.449219 69.6875 28.753906 C 69.226562 26.941406 67.496094 22.753906 65.8125 19.421875 C 64.128906 16.09375 62.5 12.359375 62.191406 11.148438 C 61.429688 8.273438 60.101562 7.0625 55.003906 4.589844 C 48.277344 1.414062 43.230469 0.503906 37.824219 1.5625 Z M 39.050781 9.433594 C 37.113281 10.492188 34.308594 12.410156 32.777344 13.773438 C 29.925781 16.394531 28.800781 16.75 30.636719 14.429688 C 31.808594 12.914062 36.90625 9.382812 39.40625 8.324219 C 42.71875 6.910156 42.464844 7.667969 39.050781 9.433594 Z M 57.605469 8.578125 C 57.605469 9.230469 56.585938 9.230469 55.566406 8.578125 C 54.953125 8.171875 55.105469 8.070312 56.226562 8.070312 C 56.992188 8.070312 57.605469 8.273438 57.605469 8.578125 Z M 56.585938 20.9375 C 56.585938 21.035156 55.566406 21.742188 54.34375 22.449219 C 51.285156 24.214844 39.761719 28.804688 39.761719 28.25 C 39.761719 27.59375 42.003906 26.484375 47.5625 24.417969 C 50.160156 23.457031 52.964844 22.199219 53.78125 21.691406 C 55.207031 20.785156 56.585938 20.382812 56.585938 20.9375 Z M 60.203125 48.984375 C 58.625 53.777344 57.144531 56.652344 57.09375 54.886719 C 57.09375 53.726562 61.324219 43.082031 61.53125 43.738281 C 61.632812 44.042969 61.019531 46.414062 60.203125 48.984375 Z M 47.613281 51.808594 C 48.019531 55.242188 47.359375 56.046875 46.441406 53.425781 C 45.828125 51.609375 45.726562 49.945312 46.1875 48.683594 C 46.746094 47.320312 47.257812 48.480469 47.613281 51.808594 Z M 47.613281 51.808594 "/>
<path style=" stroke:none;fill-rule:nonzero;fill:rgb(0%,0%,0%);fill-opacity:1;" d="M 15.140625 42.527344 C 14.988281 42.980469 15.039062 43.992188 15.242188 44.796875 C 15.597656 45.90625 15.445312 46.511719 14.734375 47.472656 C 13.558594 48.984375 13.507812 51.507812 14.679688 52.921875 C 15.140625 53.527344 16.464844 54.332031 17.585938 54.6875 L 19.625 55.390625 L 21.511719 61.34375 C 22.582031 64.625 23.296875 67.753906 23.144531 68.308594 C 22.992188 69.113281 24.570312 71.433594 29.3125 77.4375 C 38.132812 88.488281 38.285156 88.535156 32.523438 79.101562 C 28.851562 72.898438 27.019531 69.367188 23.910156 62.152344 C 21.308594 56.097656 20.953125 54.484375 22.125 53.527344 C 23.296875 52.515625 23.550781 50.550781 22.632812 48.683594 C 21.5625 46.464844 20.746094 45.808594 18.453125 45.453125 C 16.875 45.203125 16.464844 44.847656 16.007812 43.4375 C 15.597656 42.226562 15.34375 41.972656 15.140625 42.527344 Z M 21.15625 47.925781 C 23.195312 50.144531 21.613281 53.980469 18.605469 53.980469 C 15.699219 53.980469 13.765625 49.945312 15.753906 47.976562 C 17.128906 46.613281 19.933594 46.5625 21.15625 47.925781 Z M 26.253906 69.617188 C 26.40625 69.921875 26.203125 70.273438 25.742188 70.425781 C 24.773438 70.828125 24.214844 70.425781 24.722656 69.667969 C 25.132812 68.964844 25.84375 68.964844 26.253906 69.617188 Z M 26.253906 69.617188 "/>
<path style=" stroke:none;fill-rule:nonzero;fill:rgb(0%,0%,0%);fill-opacity:1;" d="M 5.609375 55.644531 C 3.976562 56.453125 3.007812 59.226562 3.671875 61.144531 C 4.484375 63.363281 6.320312 64.222656 9.53125 63.867188 C 12.640625 63.515625 14.679688 64.320312 19.117188 67.601562 C 21.5625 69.367188 21.714844 69.417969 21.820312 68.40625 C 21.871094 67.601562 21.308594 67.046875 19.523438 66.085938 C 14.679688 63.566406 12.746094 62.101562 12.746094 60.992188 C 12.746094 59.226562 11.164062 56.503906 9.636719 55.746094 C 7.902344 54.835938 7.238281 54.835938 5.609375 55.644531 Z M 10.347656 57.359375 C 10.859375 57.863281 11.214844 58.921875 11.214844 60.085938 C 11.214844 63.515625 7.648438 64.625 5.097656 61.949219 C 1.886719 58.519531 6.78125 54.230469 10.347656 57.359375 Z M 10.347656 57.359375 "/>
<path style=" stroke:none;fill-rule:nonzero;fill:rgb(0%,0%,0%);fill-opacity:1;" d="M 17.585938 58.824219 C 17.179688 59.277344 16.464844 60.285156 16.058594 61.09375 C 15.140625 62.757812 15.855469 63.058594 17.535156 61.800781 C 18.046875 61.394531 18.65625 61.195312 18.914062 61.292969 C 19.574219 61.75 19.984375 60.539062 19.675781 59.226562 C 19.320312 57.8125 18.761719 57.714844 17.585938 58.824219 Z M 17.585938 58.824219 "/>
<path style=" stroke:none;fill-rule:nonzero;fill:rgb(0%,0%,0%);fill-opacity:1;" d="M 24.824219 61.898438 C 25.234375 63.011719 26.507812 64.925781 26.507812 64.421875 C 26.507812 64.269531 27.273438 64.523438 28.191406 65.078125 C 29.058594 65.632812 30.28125 66.289062 30.890625 66.542969 C 31.453125 66.792969 33.441406 67.902344 35.226562 68.964844 C 37.0625 70.023438 39.660156 71.433594 41.035156 72.140625 C 42.464844 72.847656 43.6875 73.503906 43.839844 73.65625 C 43.992188 73.804688 44.960938 74.308594 45.980469 74.765625 C 47.207031 75.320312 48.019531 76.078125 48.226562 76.933594 C 48.53125 78.246094 48.429688 78.800781 47.207031 82.835938 C 46.796875 84.199219 46.542969 85.257812 46.695312 85.257812 C 47.359375 85.257812 51.027344 76.582031 50.722656 75.722656 C 50.570312 75.117188 46.492188 72.695312 40.121094 69.316406 C 34.460938 66.339844 28.699219 63.210938 27.375 62.457031 C 24.519531 60.789062 24.417969 60.789062 24.824219 61.898438 Z M 24.824219 61.898438 "/>
<path style=" stroke:none;fill-rule:nonzero;fill:rgb(0%,0%,0%);fill-opacity:1;" d="M 13.558594 66.035156 C 13.355469 66.390625 13.304688 66.792969 13.457031 66.945312 C 13.917969 67.398438 14.425781 66.742188 14.171875 66.035156 C 13.96875 65.480469 13.867188 65.480469 13.558594 66.035156 Z M 13.558594 66.035156 "/>
<path style=" stroke:none;fill-rule:nonzero;fill:rgb(0%,0%,0%);fill-opacity:1;" d="M 31.65625 75.066406 C 33.136719 77.691406 34.664062 79.457031 36.652344 81.070312 C 42.667969 85.8125 41.75 84.300781 32.878906 74.914062 L 29.566406 71.382812 Z M 31.65625 75.066406 "/>
</g>
</svg>
