<?xml version="1.0" encoding="UTF-8"?>
<svg xmlns="http://www.w3.org/2000/svg" xmlns:xlink="http://www.w3.org/1999/xlink" width="63px" height="78px" viewBox="0 0 63 78" version="1.1">
<g id="surface1">
<path style=" stroke:none;fill-rule:nonzero;fill:rgb(0%,0%,0%);fill-opacity:1;" d="M 32.644531 1.355469 C 25.648438 2.710938 20.195312 8.175781 19.535156 14.472656 C 19.359375 15.785156 18.960938 17.3125 18.609375 17.882812 C 16.761719 20.8125 17.203125 23.566406 20.105469 27.851562 C 22.394531 31.171875 22.523438 31.699219 21.820312 33.359375 C 21.25 34.800781 18.390625 37.601562 17.511719 37.601562 C 17.246094 37.601562 17.113281 37.730469 17.246094 37.863281 C 17.6875 38.257812 20.765625 36.769531 22.746094 35.152344 L 24.636719 33.621094 L 24.636719 35.066406 L 24.679688 36.507812 L 25.386719 35.195312 C 25.738281 34.453125 26.398438 33.492188 26.792969 33.054688 C 27.585938 32.136719 32.601562 28.769531 32.863281 28.988281 C 32.953125 29.074219 32.203125 30.519531 31.234375 32.179688 C 28.332031 37.207031 27.1875 43.371094 28.15625 49.011719 C 29.035156 54.257812 29.34375 54.214844 29.125 48.925781 C 28.683594 36.421875 33.171875 29.949219 47.644531 22.078125 C 49.363281 21.160156 50.859375 20.023438 51.121094 19.414062 C 52.046875 17.402344 52.441406 18.320312 52.132812 21.730469 C 51.914062 24.441406 52 25.488281 52.574219 26.84375 C 53.277344 28.507812 53.277344 28.636719 52.53125 29.164062 C 52.089844 29.46875 51.605469 29.730469 51.386719 29.730469 C 51.210938 29.730469 51.035156 30.300781 51.035156 31.042969 C 51.035156 31.742188 50.859375 32.355469 50.59375 32.355469 C 50.375 32.355469 50.152344 32.746094 50.152344 33.183594 C 50.152344 33.664062 49.757812 34.191406 49.273438 34.320312 C 48.65625 34.496094 48.394531 34.976562 48.394531 35.808594 C 48.394531 38.257812 46.28125 38.648438 41.75 37.164062 C 40.253906 36.640625 38.980469 36.332031 38.890625 36.421875 C 38.804688 36.507812 38.582031 38.34375 38.449219 40.488281 C 38.1875 44.902344 38.890625 47 41.003906 48.007812 C 41.617188 48.3125 42.761719 49.582031 43.464844 50.890625 C 44.214844 52.160156 45.710938 53.996094 46.808594 54.957031 C 48.175781 56.140625 49.054688 57.449219 49.667969 59.070312 C 50.199219 60.378906 51.078125 61.996094 51.695312 62.742188 C 52.707031 64.007812 52.707031 63.921875 51.515625 61.648438 C 49.011719 56.882812 49.1875 55.570312 53.628906 46.78125 C 57.71875 38.78125 58.292969 36.945312 58.25 32.136719 C 58.203125 29.207031 57.984375 27.589844 57.28125 25.839844 C 56.355469 23.566406 56.355469 22.253906 57.191406 23.609375 C 59.480469 27.152344 60.40625 33.882812 59.214844 38.429688 C 58.25 42.191406 58.644531 42.324219 59.832031 38.605469 C 61.019531 34.890625 61.152344 28.988281 60.140625 24.921875 C 59.746094 23.347656 58.25 19.71875 56.796875 16.832031 C 55.34375 13.949219 53.9375 10.710938 53.671875 9.664062 C 53.011719 7.171875 51.871094 6.121094 47.46875 3.980469 C 41.664062 1.222656 37.308594 0.4375 32.644531 1.355469 Z M 33.699219 8.175781 C 32.027344 9.09375 29.609375 10.753906 28.289062 11.9375 C 25.824219 14.210938 24.855469 14.515625 26.441406 12.503906 C 27.453125 11.191406 31.851562 8.132812 34.007812 7.214844 C 36.867188 5.988281 36.648438 6.644531 33.699219 8.175781 Z M 49.714844 7.433594 C 49.714844 8 48.832031 8 47.953125 7.433594 C 47.425781 7.082031 47.558594 6.996094 48.527344 6.996094 C 49.1875 6.996094 49.714844 7.171875 49.714844 7.433594 Z M 48.832031 18.144531 C 48.832031 18.230469 47.953125 18.84375 46.898438 19.457031 C 44.257812 20.988281 34.316406 24.964844 34.316406 24.484375 C 34.316406 23.914062 36.25 22.953125 41.046875 21.160156 C 43.289062 20.332031 45.710938 19.238281 46.414062 18.800781 C 47.644531 18.011719 48.832031 17.664062 48.832031 18.144531 Z M 51.957031 42.453125 C 50.59375 46.609375 49.316406 49.101562 49.273438 47.570312 C 49.273438 46.5625 52.925781 37.339844 53.101562 37.90625 C 53.1875 38.167969 52.660156 40.222656 51.957031 42.453125 Z M 41.089844 44.902344 C 41.441406 47.875 40.871094 48.574219 40.078125 46.300781 C 39.550781 44.726562 39.464844 43.285156 39.859375 42.191406 C 40.34375 41.011719 40.78125 42.015625 41.089844 44.902344 Z M 41.089844 44.902344 "/>
<path style=" stroke:none;fill-rule:nonzero;fill:rgb(0%,0%,0%);fill-opacity:1;" d="M 13.066406 36.859375 C 12.933594 37.25 12.976562 38.125 13.15625 38.824219 C 13.460938 39.785156 13.332031 40.3125 12.714844 41.140625 C 11.703125 42.453125 11.660156 44.640625 12.671875 45.863281 C 13.066406 46.390625 14.210938 47.089844 15.179688 47.394531 L 16.9375 48.007812 L 18.566406 53.164062 C 19.488281 56.007812 20.105469 58.71875 19.972656 59.199219 C 19.839844 59.898438 21.207031 61.910156 25.296875 67.113281 C 32.90625 76.6875 33.039062 76.730469 28.070312 68.554688 C 24.902344 63.179688 23.316406 60.117188 20.632812 53.867188 C 18.390625 48.617188 18.082031 47.21875 19.09375 46.390625 C 20.105469 45.515625 20.324219 43.808594 19.535156 42.191406 C 18.609375 40.269531 17.90625 39.699219 15.925781 39.394531 C 14.5625 39.175781 14.210938 38.867188 13.8125 37.644531 C 13.460938 36.59375 13.242188 36.375 13.066406 36.859375 Z M 18.257812 41.535156 C 20.015625 43.460938 18.652344 46.78125 16.058594 46.78125 C 13.550781 46.78125 11.878906 43.285156 13.59375 41.578125 C 14.78125 40.398438 17.203125 40.355469 18.257812 41.535156 Z M 22.65625 60.335938 C 22.789062 60.597656 22.613281 60.90625 22.21875 61.035156 C 21.382812 61.386719 20.898438 61.035156 21.335938 60.378906 C 21.6875 59.769531 22.304688 59.769531 22.65625 60.335938 Z M 22.65625 60.335938 "/>
<path style=" stroke:none;fill-rule:nonzero;fill:rgb(0%,0%,0%);fill-opacity:1;" d="M 4.839844 48.226562 C 3.429688 48.925781 2.59375 51.328125 3.167969 52.992188 C 3.871094 54.914062 5.457031 55.65625 8.226562 55.351562 C 10.910156 55.046875 12.671875 55.746094 16.496094 58.585938 C 18.609375 60.117188 18.742188 60.160156 18.828125 59.285156 C 18.875 58.585938 18.390625 58.105469 16.851562 57.277344 C 12.671875 55.089844 11 53.820312 11 52.859375 C 11 51.328125 9.636719 48.96875 8.316406 48.3125 C 6.820312 47.527344 6.246094 47.527344 4.839844 48.226562 Z M 8.929688 49.710938 C 9.371094 50.148438 9.679688 51.066406 9.679688 52.074219 C 9.679688 55.046875 6.597656 56.007812 4.398438 53.691406 C 1.628906 50.71875 5.851562 47 8.929688 49.710938 Z M 8.929688 49.710938 "/>
<path style=" stroke:none;fill-rule:nonzero;fill:rgb(0%,0%,0%);fill-opacity:1;" d="M 15.179688 50.980469 C 14.824219 51.375 14.210938 52.246094 13.859375 52.949219 C 13.066406 54.390625 13.683594 54.652344 15.132812 53.558594 C 15.574219 53.210938 16.101562 53.035156 16.320312 53.121094 C 16.894531 53.515625 17.246094 52.464844 16.980469 51.328125 C 16.675781 50.105469 16.191406 50.019531 15.179688 50.980469 Z M 15.179688 50.980469 "/>
<path style=" stroke:none;fill-rule:nonzero;fill:rgb(0%,0%,0%);fill-opacity:1;" d="M 21.425781 53.648438 C 21.777344 54.609375 22.878906 56.269531 22.878906 55.832031 C 22.878906 55.703125 23.535156 55.921875 24.328125 56.402344 C 25.078125 56.882812 26.132812 57.449219 26.660156 57.667969 C 27.144531 57.886719 28.859375 58.851562 30.398438 59.769531 C 31.984375 60.6875 34.226562 61.910156 35.414062 62.523438 C 36.648438 63.132812 37.703125 63.703125 37.835938 63.835938 C 37.96875 63.964844 38.804688 64.402344 39.683594 64.796875 C 40.738281 65.277344 41.441406 65.933594 41.617188 66.675781 C 41.882812 67.8125 41.792969 68.292969 40.738281 71.792969 C 40.386719 72.972656 40.167969 73.890625 40.300781 73.890625 C 40.871094 73.890625 44.039062 66.371094 43.773438 65.625 C 43.640625 65.101562 40.121094 63.003906 34.625 60.074219 C 29.738281 57.496094 24.769531 54.785156 23.625 54.128906 C 21.160156 52.683594 21.074219 52.683594 21.425781 53.648438 Z M 21.425781 53.648438 "/>
<path style=" stroke:none;fill-rule:nonzero;fill:rgb(0%,0%,0%);fill-opacity:1;" d="M 11.703125 57.230469 C 11.527344 57.539062 11.484375 57.886719 11.613281 58.019531 C 12.011719 58.414062 12.449219 57.84375 12.230469 57.230469 C 12.054688 56.75 11.964844 56.75 11.703125 57.230469 Z M 11.703125 57.230469 "/>
<path style=" stroke:none;fill-rule:nonzero;fill:rgb(0%,0%,0%);fill-opacity:1;" d="M 27.320312 65.058594 C 28.597656 67.332031 29.917969 68.863281 31.632812 70.261719 C 36.824219 74.371094 36.03125 73.058594 28.375 64.925781 L 25.515625 61.867188 Z M 27.320312 65.058594 "/>
</g>
</svg>
