<!DOCTYPE svg PUBLIC "-//W3C//DTD SVG 1.1//EN" "http://www.w3.org/Graphics/SVG/1.1/DTD/svg11.dtd">
<!-- Uploaded to: SVG Repo, www.svgrepo.com, Transformed by: SVG Repo Mixer Tools -->
<svg height="75px" width="75px" version="1.1" id="Layer_1" xmlns="http://www.w3.org/2000/svg" xmlns:xlink="http://www.w3.org/1999/xlink" viewBox="-30.72 -30.72 573.44 573.44" xml:space="preserve" fill="#000000">
<g id="SVGRepo_bgCarrier" stroke-width="0"/>
<g id="SVGRepo_tracerCarrier" stroke-linecap="round" stroke-linejoin="round"/>
<g id="SVGRepo_iconCarrier"> <path style="fill:#A2A9AF;" d="M443.265,13.721l0.01,98.229l-54.98,38.037l-54.96-38.057l-0.047-98.229 c-34.073,19.247-57.133,55.751-57.133,97.724c0,16.857,4.031,32.73,10.701,47.061l-262.5,262.519 c-17.037,16.979-17.01,44.583-0.038,61.572c17.036,17.036,44.611,16.999,61.61-0.01l265.674-265.682c0,0,23.792,6.613,36.655,6.622 c61.964,0.048,112.159-50.205,112.159-112.13C500.407,69.461,477.358,32.959,443.265,13.721z"/> <polygon style="fill:#4C5870;" points="389.841,374.235 243.454,227.847 222.36,248.939 368.748,395.327 381.672,430.968 449.001,498.296 492.809,454.488 425.481,387.159 "/> <path style="fill:#EE3840;" d="M216.268,287.795L27.179,98.715C8.935,80.481,8.894,50.904,27.168,32.63 C45.392,14.427,75,14.396,93.213,32.67l189.101,189.08L216.268,287.795z"/> <g> <path style="fill:#C21B23;" d="M228.122,233.603c-4.523,4.523-11.858,4.523-16.382,0L51.941,73.804 c-4.523-4.523-4.523-11.858,0-16.382s11.858-4.523,16.382,0l159.798,159.798C232.644,221.744,232.645,229.079,228.122,233.603z"/> <path style="fill:#C21B23;" d="M295.612,224.834l-76.26,76.26c-4.523,4.523-11.858,4.523-16.382,0s-4.523-11.858,0-16.382 l76.26-76.26c4.523-4.523,11.858-4.523,16.382,0C300.135,212.975,300.135,220.31,295.612,224.834z"/> </g> <circle style="fill:#FFFFFF;" cx="54.953" cy="451.949" r="11.584"/> <g> <path style="fill:#11113F;" d="M269.098,159.864c-4.522,4.525-4.522,11.858,0.002,16.383c4.525,4.525,11.859,4.523,16.382-0.002 l9.565-9.568c3.44-3.442,4.364-8.666,2.31-13.078c-6.383-13.715-9.619-27.904-9.619-42.174c0-29.051,12.646-56.413,33.976-75.317 l0.037,75.828c0.001,3.798,1.866,7.356,4.989,9.518l54.96,38.057c3.965,2.745,9.218,2.748,13.185,0.002l54.98-38.037 c3.128-2.164,4.994-5.724,4.994-9.528l-0.008-75.824c21.328,18.887,33.975,46.227,33.982,75.254 c0,26.863-10.459,52.119-29.452,71.115c-18.978,18.982-44.202,29.432-71.037,29.432c-0.026,0-0.052,0-0.079,0 c-9.233-0.007-27.358-4.477-33.564-6.2c-4.023-1.119-8.339,0.017-11.292,2.969l-35.217,35.218c-4.523,4.523-4.523,11.858,0,16.383 c2.262,2.261,5.227,3.393,8.191,3.393s5.93-1.132,8.191-3.393l30.527-30.528c8.511,2.105,23.14,5.318,33.146,5.325 c0.035,0,0.064,0,0.097,0c33.019-0.001,64.066-12.863,87.419-36.22c23.367-23.371,36.235-54.443,36.235-87.496 c-0.01-44.521-24.167-85.805-63.042-107.744c-3.586-2.024-7.978-1.992-11.535,0.085c-3.556,2.077-5.743,5.886-5.742,10.005 l0.009,92.157l-43.393,30.02l-43.378-30.04l-0.045-92.163c-0.002-4.118-2.19-7.926-5.747-10c-3.556-2.076-7.948-2.105-11.534-0.08 c-38.871,21.958-63.019,63.268-63.019,107.808c0,15.045,2.873,29.949,8.552,44.415L269.098,159.864z"/> <path style="fill:#11113F;" d="M238.425,313.682L77.734,474.379c-6.039,6.042-14.066,9.371-22.603,9.377c-0.006,0-0.01,0-0.017,0 c-8.535-0.001-16.564-3.328-22.601-9.365c-6.036-6.043-9.356-14.081-9.346-22.636c0.009-8.529,3.335-16.536,9.379-22.56 l138.216-138.228c4.523-4.523,4.523-11.857,0-16.382c-4.523-4.522-11.858-4.523-16.382,0.001L16.179,412.8 C5.763,423.18,0.017,437.006,0,451.728c-0.017,14.747,5.708,28.611,16.127,39.041c10.418,10.418,24.263,16.155,38.986,16.155 c0.01,0,0.021,0,0.03,0c14.724-0.008,28.567-5.75,38.976-16.165l160.688-160.694c4.523-4.523,4.523-11.858,0-16.383 C250.282,309.16,242.949,309.16,238.425,313.682z"/> <path style="fill:#11113F;" d="M433.672,378.968c-1.2-1.199-2.648-2.12-4.242-2.699l-33.219-12.045L276.218,244.228l19.395-19.393 c4.523-4.523,4.525-11.858,0-16.383c-3.433-3.431-8.485-4.26-12.699-2.484L101.418,24.493C90.441,13.481,75.822,7.406,60.255,7.388 c-0.023,0-0.044,0-0.067,0c-15.567,0-30.2,6.054-41.21,17.051C7.953,35.463,1.887,50.114,1.896,65.694 c0.008,15.567,6.079,30.205,17.092,41.211l181.498,181.49c-1.777,4.213-0.95,9.265,2.484,12.698c4.525,4.522,11.859,4.525,16.382,0 l19.39-19.39l119.995,119.993l12.046,33.22c0.578,1.594,1.499,3.043,2.699,4.242l67.329,67.328 c2.262,2.261,5.227,3.393,8.191,3.393s5.93-1.132,8.191-3.393L501,462.679c2.172-2.173,3.393-5.119,3.393-8.191 s-1.221-6.018-3.393-8.191L433.672,378.968z M251.643,236.037c-0.024,0.024-0.05,0.051-0.074,0.075l-35.301,35.301L35.367,90.522 c-6.64-6.636-10.299-15.457-10.304-24.839c-0.005-9.387,3.651-18.217,10.291-24.856c6.632-6.625,15.449-10.27,24.833-10.27 c0.014,0,0.028,0,0.041,0c9.375,0.01,18.174,3.666,24.793,10.306l180.909,180.89l-14.211,14.211 C251.694,235.988,251.669,236.012,251.643,236.037z M449.001,481.914l-57.316-57.316l-12.046-33.22 c-0.578-1.594-1.499-3.043-2.699-4.242L255.124,265.322l4.712-4.711l121.814,121.815c1.2,1.199,2.648,2.12,4.242,2.699 l33.219,12.045l57.316,57.316L449.001,481.914z"/> <path style="fill:#11113F;" d="M68.322,57.422c-4.523-4.522-11.858-4.522-16.382,0c-4.523,4.523-4.523,11.858,0,16.383 l159.798,159.797c2.261,2.261,5.227,3.393,8.191,3.393c2.964,0,5.93-1.132,8.191-3.393c4.523-4.523,4.523-11.858,0-16.383 L68.322,57.422z"/> </g> </g>
</svg>