<?xml version="1.0" standalone="no"?>
<!DOCTYPE svg PUBLIC "-//W3C//DTD SVG 20010904//EN"
 "http://www.w3.org/TR/2001/REC-SVG-20010904/DTD/svg10.dtd">
<svg version="1.0" xmlns="http://www.w3.org/2000/svg"
 width="123.000000pt" height="90.000000pt" viewBox="0 0 123.000000 90.000000"
 preserveAspectRatio="xMidYMid meet">

<g transform="translate(0.000000,90.000000) scale(0.100000,-0.100000)"
fill="#000000" stroke="none">
<path d="M180 630 l0 -41 98 3 97 3 0 35 0 35 -97 3 -98 3 0 -41z"/>
<path d="M100 442 c0 -28 7 -58 17 -72 30 -44 38 -42 43 8 l5 47 467 3 468 2
0 -44 c0 -25 4 -48 10 -51 18 -11 50 57 50 108 l0 47 -530 0 -530 0 0 -48z"/>
<path d="M180 335 c0 -13 57 -15 450 -15 393 0 450 2 450 15 0 13 -57 15 -450
15 -393 0 -450 -2 -450 -15z"/>
<path d="M316 203 c-16 -38 -17 -50 -7 -85 7 -22 14 -38 16 -36 3 2 -1 21 -7
41 -9 31 -8 43 7 77 10 22 16 42 14 44 -2 3 -13 -16 -23 -41z"/>
<path d="M626 205 c-17 -44 -16 -89 5 -125 13 -23 11 7 -3 46 -10 28 -9 39 7
73 10 23 16 43 14 45 -2 3 -13 -15 -23 -39z"/>
<path d="M787 215 c-24 -50 -20 -58 4 -12 11 22 19 41 17 43 -3 2 -12 -12 -21
-31z"/>
<path d="M938 207 c-20 -48 -22 -66 -8 -87 7 -11 8 -6 4 16 -4 20 0 43 11 63
9 18 15 36 13 42 -2 5 -11 -10 -20 -34z"/>
<path d="M472 205 c-7 -14 -12 -31 -12 -38 1 -7 7 3 16 22 17 39 13 54 -4 16z"/>
<path d="M467 115 c3 -22 7 -42 9 -44 8 -9 2 45 -6 64 -7 14 -8 8 -3 -20z"/>
<path d="M776 110 c8 -43 14 -51 14 -19 0 13 -5 31 -10 39 -7 11 -8 5 -4 -20z"/>
</g>
</svg>
