<?xml version="1.0" encoding="UTF-8" standalone="no"?>
<svg
   version="1.2"
   width="277.1272mm"
   height="219.72568mm"
   viewBox="0 0 27712.72 21972.567"
   preserveAspectRatio="xMidYMid"
   fill-rule="evenodd"
   stroke-width="28.222"
   stroke-linejoin="round"
   xml:space="preserve"
   id="svg7318"
   sodipodi:docname="2.svg"
   inkscape:version="1.2.2 (732a01da63, 2022-12-09, custom)"
   xmlns:inkscape="http://www.inkscape.org/namespaces/inkscape"
   xmlns:sodipodi="http://sodipodi.sourceforge.net/DTD/sodipodi-0.dtd"
   xmlns="http://www.w3.org/2000/svg"
   xmlns:svg="http://www.w3.org/2000/svg"
   xmlns:ooo="http://xml.openoffice.org/svg/export"><sodipodi:namedview
   id="namedview7320"
   pagecolor="#ffffff"
   bordercolor="#000000"
   borderopacity="0.25"
   inkscape:showpageshadow="2"
   inkscape:pageopacity="0.0"
   inkscape:pagecheckerboard="0"
   inkscape:deskcolor="#d1d1d1"
   inkscape:document-units="mm"
   showgrid="false"
   inkscape:zoom="0.92581243"
   inkscape:cx="521.70395"
   inkscape:cy="403.96952"
   inkscape:window-width="1920"
   inkscape:window-height="1031"
   inkscape:window-x="0"
   inkscape:window-y="25"
   inkscape:window-maximized="1"
   inkscape:current-layer="layer12" />
 <defs
   class="ClipPathGroup"
   id="defs7260">
  <clipPath
   id="presentation_clip_path"
   clipPathUnits="userSpaceOnUse">
   <rect
   x="0"
   y="0"
   width="29131"
   height="23663"
   id="rect7254" />
  </clipPath>
  <clipPath
   id="presentation_clip_path_shrink"
   clipPathUnits="userSpaceOnUse">
   <rect
   x="29"
   y="23"
   width="29073"
   height="23616"
   id="rect7257" />
  </clipPath>
 </defs>
 <defs
   class="TextShapeIndex"
   id="defs7264">
  <g
   ooo:slide="id1"
   ooo:id-list="id3"
   id="g7262" />
 </defs>
 <defs
   class="EmbeddedBulletChars"
   id="defs7296">
  <g
   id="bullet-char-template-57356"
   transform="matrix(4.8828125e-4,0,0,-4.8828125e-4,0,0)">
   <path
   d="M 580,1141 1163,571 580,0 -4,571 Z"
   id="path7266" />
  </g>
  <g
   id="bullet-char-template-57354"
   transform="matrix(4.8828125e-4,0,0,-4.8828125e-4,0,0)">
   <path
   d="M 8,1128 H 1137 V 0 H 8 Z"
   id="path7269" />
  </g>
  <g
   id="bullet-char-template-10146"
   transform="matrix(4.8828125e-4,0,0,-4.8828125e-4,0,0)">
   <path
   d="M 174,0 602,739 174,1481 1456,739 Z M 1358,739 309,1346 659,739 Z"
   id="path7272" />
  </g>
  <g
   id="bullet-char-template-10132"
   transform="matrix(4.8828125e-4,0,0,-4.8828125e-4,0,0)">
   <path
   d="M 2015,739 1276,0 H 717 l 543,543 H 174 v 393 h 1086 l -543,545 h 557 z"
   id="path7275" />
  </g>
  <g
   id="bullet-char-template-10007"
   transform="matrix(4.8828125e-4,0,0,-4.8828125e-4,0,0)">
   <path
   d="m 0,-2 c -7,16 -16,29 -25,39 l 381,530 c -94,256 -141,385 -141,387 0,25 13,38 40,38 9,0 21,-2 34,-5 21,4 42,12 65,25 l 27,-13 111,-251 280,301 64,-25 24,25 c 21,-10 41,-24 62,-43 C 886,937 835,863 770,784 769,783 710,716 594,584 L 774,223 c 0,-27 -21,-55 -63,-84 l 16,-20 C 717,90 699,76 672,76 641,76 570,178 457,381 L 164,-76 c -22,-34 -53,-51 -92,-51 -42,0 -63,17 -64,51 -7,9 -10,24 -10,44 0,9 1,19 2,30 z"
   id="path7278" />
  </g>
  <g
   id="bullet-char-template-10004"
   transform="matrix(4.8828125e-4,0,0,-4.8828125e-4,0,0)">
   <path
   d="M 285,-33 C 182,-33 111,30 74,156 52,228 41,333 41,471 c 0,78 14,145 41,201 34,71 87,106 158,106 53,0 88,-31 106,-94 l 23,-176 c 8,-64 28,-97 59,-98 l 735,706 c 11,11 33,17 66,17 42,0 63,-15 63,-46 V 965 c 0,-36 -10,-64 -30,-84 L 442,47 C 390,-6 338,-33 285,-33 Z"
   id="path7281" />
  </g>
  <g
   id="bullet-char-template-9679"
   transform="matrix(4.8828125e-4,0,0,-4.8828125e-4,0,0)">
   <path
   d="M 813,0 C 632,0 489,54 383,161 276,268 223,411 223,592 c 0,181 53,324 160,431 106,107 249,161 430,161 179,0 323,-54 432,-161 108,-107 162,-251 162,-431 0,-180 -54,-324 -162,-431 C 1136,54 992,0 813,0 Z"
   id="path7284" />
  </g>
  <g
   id="bullet-char-template-8226"
   transform="matrix(4.8828125e-4,0,0,-4.8828125e-4,0,0)">
   <path
   d="m 346,457 c -73,0 -137,26 -191,78 -54,51 -81,114 -81,188 0,73 27,136 81,188 54,52 118,78 191,78 73,0 134,-26 185,-79 51,-51 77,-114 77,-187 0,-75 -25,-137 -76,-188 -50,-52 -112,-78 -186,-78 z"
   id="path7287" />
  </g>
  <g
   id="bullet-char-template-8211"
   transform="matrix(4.8828125e-4,0,0,-4.8828125e-4,0,0)">
   <path
   d="M -4,459 H 1135 V 606 H -4 Z"
   id="path7290" />
  </g>
  <g
   id="bullet-char-template-61548"
   transform="matrix(4.8828125e-4,0,0,-4.8828125e-4,0,0)">
   <path
   d="m 173,740 c 0,163 58,303 173,419 116,115 255,173 419,173 163,0 302,-58 418,-173 116,-116 174,-256 174,-419 0,-163 -58,-303 -174,-418 C 1067,206 928,148 765,148 601,148 462,206 346,322 231,437 173,577 173,740 Z"
   id="path7293" />
  </g>
 </defs>
 
 
<g
   inkscape:groupmode="layer"
   id="layer12"
   inkscape:label="Layer 1"
   transform="translate(-762.51484,-1142.425)"><path
     fill="#000000"
     stroke="none"
     d="m 13552,23092 c -69,-69 -15,-310 133,-597 87,-168 184,-424 216,-569 86,-386 54,-955 -86,-1557 -133,-569 -136,-632 -31,-674 80,-31 1276,-75 4029,-145 815,-20 1673,-48 1907,-62 l 425,-24 -1055,-970 c -580,-534 -1374,-1262 -1765,-1618 -391,-356 -783,-714 -870,-795 -87,-80 -516,-471 -952,-868 -437,-397 -817,-744 -844,-770 -28,-26 -638,-582 -1357,-1235 -719,-653 -1443,-1315 -1608,-1470 -165,-156 -681,-631 -1147,-1057 C 9444,9672 9397,9628 9103,9355 8966,9227 8664,8949 8432,8738 8200,8526 7795,8154 7532,7911 7270,7668 6777,7216 6437,6906 6098,6597 5812,6335 5802,6325 5793,6314 5523,6066 5203,5774 4443,5079 2870,3638 2645,3430 1766,2617 1575,2450 1499,2426 1393,2393 878,1901 807,1767 c -97,-188 -27,-510 129,-594 46,-25 169,-36 299,-28 220,14 221,15 515,289 163,151 319,313 348,361 29,47 309,311 622,588 313,276 1154,1025 1870,1665 1566,1401 2162,1933 3911,3492 1775,1581 1844,1643 2256,2013 195,175 720,642 1166,1038 446,397 930,833 1076,970 145,137 511,464 811,729 737,648 2014,1777 2901,2562 400,354 744,643 764,643 20,0 62,38 92,85 31,47 118,126 194,176 75,50 309,256 518,457 210,201 468,442 575,535 482,420 1089,954 1658,1459 145,129 370,327 500,439 246,214 311,330 311,558 0,105 20,148 89,193 80,52 174,54 1032,18 1083,-46 2362,-94 3853,-144 573,-19 1204,-43 1403,-53 l 363,-18 69,114 c 114,187 279,727 321,1050 48,375 16,880 -74,1171 -79,253 -278,605 -446,789 -95,103 -136,124 -231,114 -108,-10 -118,-21 -128,-146 -9,-107 18,-185 129,-370 227,-380 266,-529 265,-1012 -1,-323 -17,-469 -69,-617 l -67,-194 -225,-11 -226,-10 23,113 c 99,494 53,1140 -109,1531 -118,285 -442,715 -563,745 -241,61 -292,-180 -99,-471 71,-107 171,-300 222,-428 81,-205 92,-284 91,-622 -2,-403 -51,-662 -146,-768 -39,-43 -108,-61 -235,-61 h -179 l 12,558 c 19,873 -72,1142 -597,1761 -82,96 -295,111 -329,24 -33,-87 -25,-256 13,-279 71,-44 312,-501 372,-706 114,-382 68,-1091 -81,-1261 -38,-44 -107,-62 -237,-62 h -184 l 17,505 c 28,812 -73,1171 -472,1681 -171,219 -208,248 -312,248 -202,0 -220,-212 -40,-480 67,-99 166,-281 221,-405 94,-213 99,-255 100,-720 0,-424 -10,-514 -71,-635 l -70,-141 h -219 c -217,0 -219,1 -196,88 13,48 23,302 23,564 0,695 -104,1022 -485,1528 -175,233 -184,239 -322,229 -136,-10 -142,-16 -153,-139 -8,-100 20,-175 131,-347 288,-445 394,-916 321,-1427 -61,-435 -143,-519 -448,-458 l -103,21 15,487 c 24,759 -98,1174 -491,1669 -183,231 -195,239 -331,229 -134,-10 -142,-16 -152,-137 -8,-102 24,-181 167,-406 285,-447 377,-934 281,-1485 -51,-290 -91,-328 -348,-328 h -205 l 17,503 c 28,798 -119,1282 -526,1732 -169,186 -198,204 -310,194 -114,-12 -124,-22 -134,-142 -9,-103 17,-173 126,-335 300,-449 398,-861 334,-1406 -22,-190 -65,-378 -97,-427 -51,-79 -76,-86 -274,-77 l -218,11 17,176 c 26,281 5,895 -39,1109 -55,270 -236,647 -437,913 -164,216 -173,222 -314,211 -136,-10 -147,-18 -157,-124 -8,-83 28,-179 133,-356 261,-438 299,-589 300,-1177 1,-472 -5,-526 -73,-617 -64,-87 -101,-101 -283,-110 l -210,-10 1,610 c 1,593 -2,618 -107,914 -102,284 -337,688 -507,869 -90,95 -299,110 -333,23 -39,-103 -22,-232 45,-327 88,-125 267,-486 317,-640 118,-365 108,-1137 -16,-1332 -44,-68 -82,-79 -272,-79 h -221 l 1,573 c 1,802 -112,1173 -514,1678 -166,208 -186,221 -307,211 -122,-10 -131,-19 -141,-139 -8,-101 27,-193 164,-433 264,-460 336,-844 272,-1456 -36,-349 -66,-381 -352,-382 l -232,-1 v 519 c 0,810 -111,1193 -493,1697 -167,221 -189,237 -316,237 -142,0 -179,-39 -178,-188 0,-42 32,-124 72,-182 351,-514 482,-1101 384,-1710 -50,-309 -97,-354 -367,-354 h -217 l -1,574 c -2,808 -103,1143 -509,1695 -169,229 -183,240 -308,229 -125,-10 -131,-16 -141,-154 -9,-115 18,-191 133,-388 79,-134 176,-348 215,-474 138,-441 122,-1294 -26,-1402 -33,-25 -161,-44 -283,-44 h -223 v 555 c -1,823 -77,1104 -446,1660 l -196,293 -146,-11 c -138,-10 -147,-17 -158,-128 -8,-85 38,-214 169,-476 247,-491 306,-789 260,-1321 -43,-507 -69,-540 -400,-513 l -228,19 -2,587 c -3,806 -82,1094 -449,1645 -77,117 -165,232 -195,256 -59,47 -226,60 -265,21 z m 568,-806 c 119,-241 274,-1058 214,-1133 -34,-43 -23,-645 13,-703 12,-19 171,-33 358,-32 503,5 551,75 550,810 -1,556 -63,838 -279,1268 -97,193 -169,358 -160,368 47,47 430,-583 528,-868 85,-248 174,-839 135,-901 -12,-20 -18,-133 -12,-251 5,-119 11,-271 14,-339 4,-120 9,-123 179,-148 96,-14 192,-11 212,6 20,17 93,23 163,13 88,-11 149,3 204,47 92,75 152,298 124,457 -11,61 -6,119 10,129 52,32 -15,795 -91,1044 -40,128 -136,342 -214,475 -155,264 -157,270 -109,270 60,0 422,-583 514,-827 49,-131 98,-336 108,-455 10,-120 36,-277 58,-350 29,-100 29,-153 -2,-212 -25,-47 -37,-187 -31,-344 l 12,-264 330,-9 c 299,-9 339,-2 413,68 45,42 82,98 82,123 0,26 12,47 26,47 15,0 31,227 36,504 8,406 -4,555 -59,772 -69,268 -196,558 -328,744 -38,54 -63,116 -55,138 19,58 331,-376 452,-627 181,-379 266,-943 214,-1425 -22,-205 -21,-314 5,-345 26,-33 132,-43 372,-35 321,9 338,14 409,109 81,108 107,347 99,906 -5,411 -89,720 -288,1066 -176,304 -198,404 -50,222 325,-399 470,-735 556,-1281 46,-294 50,-426 21,-685 -20,-177 -23,-335 -8,-350 30,-29 304,-40 552,-22 204,14 260,113 306,545 28,259 28,446 0,675 -45,372 -96,530 -287,883 -78,144 -134,268 -126,276 18,19 194,-205 321,-407 246,-394 406,-1128 334,-1537 -21,-121 -33,-275 -27,-341 l 12,-120 322,-10 c 320,-10 323,-9 411,96 110,130 150,463 122,1023 -20,420 -92,666 -291,1001 -169,283 -140,325 49,71 280,-377 410,-699 465,-1155 45,-363 42,-595 -9,-803 -60,-246 -22,-276 358,-276 439,0 480,61 519,764 33,595 -59,965 -347,1397 -75,111 -121,203 -102,203 61,0 364,-403 467,-621 55,-118 124,-324 153,-458 61,-291 68,-875 13,-1035 -28,-81 -29,-138 -3,-195 33,-72 67,-82 331,-98 468,-27 514,38 548,767 25,566 -54,898 -309,1300 -98,153 -169,287 -159,297 11,11 25,13 32,5 380,-460 489,-653 589,-1047 76,-294 91,-838 32,-1095 -58,-253 -16,-290 335,-290 283,0 299,5 382,103 62,75 97,178 126,372 99,663 0,1190 -315,1678 -78,120 -133,228 -123,238 11,11 25,13 32,5 322,-394 486,-686 577,-1030 55,-206 64,-524 36,-1207 l -8,-176 h 331 c 313,0 335,5 397,88 101,136 145,466 129,970 -14,404 -27,486 -114,687 -54,126 -145,297 -202,381 -159,230 -103,247 73,22 215,-275 379,-624 429,-912 40,-231 28,-867 -21,-1078 -35,-149 43,-202 330,-221 233,-15 268,-8 357,66 132,112 197,416 193,914 -3,469 -66,706 -284,1072 -85,144 -149,267 -142,275 27,27 341,-389 427,-564 168,-347 206,-588 192,-1206 l -14,-565 265,-23 c 409,-35 500,56 569,574 82,606 -19,1141 -288,1532 -180,262 -98,258 96,-5 361,-488 469,-923 398,-1601 -24,-230 -35,-441 -24,-469 28,-75 544,-107 650,-40 111,70 187,356 211,792 32,576 -51,924 -326,1366 -52,82 -77,150 -57,150 58,0 380,-507 463,-727 179,-479 168,-1095 -30,-1674 -176,-518 -153,-492 -442,-491 -420,1 -2637,78 -5735,197 l -618,24 -118,-99 c -101,-86 -115,-117 -102,-226 25,-209 -33,-300 -386,-608 -1277,-1115 -2381,-2096 -2692,-2395 -165,-158 -367,-334 -449,-391 -83,-57 -166,-135 -187,-173 -20,-38 -53,-70 -73,-70 -20,0 -364,-289 -764,-643 -887,-785 -2164,-1914 -2901,-2562 -300,-264 -665,-593 -811,-729 -239,-225 -1672,-1508 -2539,-2273 C 10167,9264 9277,8470 8376,7666 7475,6861 6380,5884 5944,5495 5507,5105 4753,4432 4268,3998 3783,3564 3066,2924 2675,2577 c -391,-347 -718,-661 -728,-696 -9,-36 -56,-91 -105,-123 -83,-54 -95,-53 -213,16 -80,47 -144,124 -181,217 -66,164 -45,208 131,280 105,42 481,375 1771,1566 273,253 757,697 1075,988 319,291 787,720 1041,953 254,232 731,669 1060,970 329,300 813,745 1075,988 262,242 573,528 690,635 117,106 593,543 1057,970 465,426 1147,1052 1516,1390 369,338 798,735 953,882 155,147 964,886 1796,1643 2638,2397 6089,5552 6718,6144 71,66 112,133 100,164 -23,60 -231,70 -2512,128 -3001,76 -4009,118 -4028,166 -28,74 129,731 185,774 39,29 47,83 31,212 -11,95 -18,347 -15,562 6,494 -62,799 -266,1196 -86,167 -157,312 -157,321 0,63 76,-21 217,-240 90,-141 196,-319 234,-397 z M 1485,1545 c -79,-121 -213,-202 -309,-189 -45,7 -115,63 -157,125 -42,62 -86,103 -98,91 -12,-12 -22,-7 -22,11 0,62 109,191 161,191 28,0 51,22 51,50 0,73 221,5 339,-104 89,-83 91,-90 35,-175 z"
     id="path7305" /></g></svg>
